<?xml version="1.0" encoding="utf-8"?>
<!-- Generator: Adobe Illustrator 25.2.1, SVG Export Plug-In . SVG Version: 6.00 Build 0)  -->
<svg version="1.1" id="Layer_1" xmlns="http://www.w3.org/2000/svg" xmlns:xlink="http://www.w3.org/1999/xlink" x="0px" y="0px"
	 viewBox="0 0 24 24" style="enable-background:new 0 0 24 24;" xml:space="preserve">
<style type="text/css">
	.st0{fill:#9AA0A6;}
</style>
<path class="st0" d="M9.5,14c1.2,0,2.3-0.4,3.2-1.3c0.9-0.9,1.3-1.9,1.3-3.2s-0.4-2.3-1.3-3.2C11.8,5.5,10.8,5,9.5,5
	S7.2,5.5,6.3,6.3S5,8.3,5,9.5s0.4,2.3,1.3,3.2C7.2,13.6,8.3,14,9.5,14z M15.5,14l5,5L19,20.5l-5-5v-0.8l-0.3-0.3
	c-1.2,1-2.6,1.5-4.2,1.5c-1.8,0-3.4-0.6-4.6-1.9S3,11.3,3,9.5c0-1.8,0.6-3.4,1.9-4.6S7.7,3,9.5,3c1.8,0,3.3,0.6,4.6,1.9
	S16,7.7,16,9.5c0,0.7-0.2,1.4-0.5,2.2c-0.3,0.8-0.7,1.5-1.1,2l0.3,0.3C14.7,14,15.5,14,15.5,14z"/>
</svg>
