<?xml version="1.0" encoding="utf-8"?>
<!-- Generator: Adobe Illustrator 25.2.1, SVG Export Plug-In . SVG Version: 6.00 Build 0)  -->
<svg version="1.1" id="Layer_1" xmlns="http://www.w3.org/2000/svg" xmlns:xlink="http://www.w3.org/1999/xlink" x="0px" y="0px"
	 viewBox="0 0 24 24" style="enable-background:new 0 0 24 24;" xml:space="preserve">
<style type="text/css">
	.st0{fill:#9AA0A6;}
</style>
<path class="st0" d="M17,7c1.4,0,2.5,0.5,3.5,1.5S22,10.6,22,12s-0.5,2.6-1.5,3.5S18.4,17,17,17h-4v-1.9h4c0.8,0,1.6-0.3,2.2-0.9
	s0.9-1.3,0.9-2.2c0-0.8-0.3-1.6-0.9-2.2S17.9,8.9,17,8.9h-4V7C13,7,17,7,17,7z M8,13v-2h8v2H8z M3.9,12c0,0.8,0.3,1.6,0.9,2.2
	s1.3,0.9,2.2,0.9h4V17H7c-1.4,0-2.5-0.5-3.5-1.5S2,13.4,2,12s0.5-2.6,1.5-3.5S5.6,7,7,7h4v1.9H7c-0.8,0-1.6,0.3-2.2,0.9
	S3.9,11.2,3.9,12z"/>
</svg>
